<svg xmlns="http://www.w3.org/2000/svg" width="1600" height="1000" viewBox="0 0 1600 1000">
  <!-- Visuel provisoire : à remplacer par une photo de rénovation électrique. -->
  <rect width="1600" height="1000" fill="#E4E6E3"/>
  <g transform="matrix(-1 0 0 1 1600 0)">
    <g fill="none" stroke="#1F2328" stroke-opacity=".12" stroke-width="3" stroke-linecap="round" stroke-linejoin="round">
      <path d="M0 200h360l80 80h380"/>
      <path d="M1600 150h-360l-90 90h-170"/>
      <path d="M0 800h280l110-110h300"/>
      <path d="M1600 840h-300l-120-120h-220"/>
      <path d="M520 1000v-120l50-50"/>
      <path d="M1100 0v110l-60 60"/>
    </g>
    <g fill="#1F2328" fill-opacity=".2">
      <circle cx="820" cy="280" r="9"/>
      <circle cx="980" cy="240" r="9"/>
      <circle cx="690" cy="690" r="9"/>
      <circle cx="960" cy="720" r="9"/>
      <circle cx="570" cy="830" r="9"/>
      <circle cx="1040" cy="170" r="9"/>
    </g>
    <circle cx="440" cy="280" r="11" fill="#E8A317"/>
  </g>
  <g transform="translate(644 344) scale(13)" fill="none" stroke="#1F2328" stroke-opacity=".32" stroke-width="1.1" stroke-linecap="round" stroke-linejoin="round">
    <path d="M3 10.5 12 3l9 7.5"/>
    <path d="M5 9v11h14V9"/>
    <path d="M15 15a3 3 0 1 1-1.5-2.6"/>
    <path d="m13.3 11.2.5 1.4-1.5.3"/>
  </g>
</svg>
